<svg xmlns="http://www.w3.org/2000/svg" xmlns:cc="http://creativecommons.org/ns#" xmlns:dc="http://purl.org/dc/elements/1.1/" xmlns:rdf="http://www.w3.org/1999/02/22-rdf-syntax-ns#" xmlns:xlink="http://www.w3.org/1999/xlink" id="svg267" width="343" height="235" version="1.1">
    <metadata id="metadata271">
        <rdf:RDF>
            <cc:Work>
                <dc:format>
                    image/svg+xml
                </dc:format>
                <dc:type rdf:resource="http://purl.org/dc/dcmitype/StillImage"/>
                <dc:title>
                    78BB2C51-628E-4350-A618-78ABF3481C8D
                </dc:title>
            </cc:Work>
        </rdf:RDF>
    </metadata>
    <defs id="defs227">
        <filter id="filter-1" width="135.9%" height="157.5%" x="-17.9%" y="-18.7%" filterUnits="objectBoundingBox">
            <feMorphology id="feMorphology204" in="SourceAlpha" operator="dilate" radius=".5" result="shadowSpreadOuter1"/>
            <feOffset id="feOffset206" dx="0" dy="18" in="shadowSpreadOuter1" result="shadowOffsetOuter1"/>
            <feMorphology id="feMorphology208" in="SourceAlpha" operator="erode" radius="1" result="shadowInner"/>
            <feOffset id="feOffset210" dx="0" dy="18" in="shadowInner" result="shadowInner"/>
            <feComposite id="feComposite212" in="shadowOffsetOuter1" in2="shadowInner" operator="out" result="shadowOffsetOuter1"/>
            <feGaussianBlur id="feGaussianBlur214" in="shadowOffsetOuter1" result="shadowBlurOuter1" stdDeviation="14"/>
            <feColorMatrix id="feColorMatrix216" in="shadowBlurOuter1" result="shadowMatrixOuter1" type="matrix" values="0 0 0 0 0 0 0 0 0 0 0 0 0 0 0 0 0 0 0.2 0"/>
            <feMerge id="feMerge222">
                <feMergeNode id="feMergeNode218" in="shadowMatrixOuter1"/>
                <feMergeNode id="feMergeNode220" in="SourceGraphic"/>
            </feMerge>
        </filter>
        <rect id="path-2" width="287" height="179" x="0" y="0" rx="7.3"/>
        <polygon id="path-4" points="0 20.2 113 20.2"/>
    </defs>
    <g id="Completo" fill="none" fill-rule="evenodd" stroke="none" stroke-width="1">
        <g id="05.17:Beneficios" transform="translate(-9 -185)">
            <g id="Cartao" transform="translate(9 185)">
                <g id="cartao-banrisul" filter="url(#filter-1)" transform="translate(28 10)">
                    <g id="Logo">
                        <mask id="mask-3" fill="#fff">
                            <use id="use229" xlink:href="#path-2"/>
                        </mask>
                        <use id="Mask" fill="#0073C7" xlink:href="#path-2"/>
                        <g id="g249" mask="url(#mask-3)">
                            <g id="g247" transform="translate(159.9 12.3)">
                                <path id="Fill-1" fill="#FFF" fill-rule="evenodd" stroke="none" d="M24.5 19.9v-18H32c2.2 0 5.6.7 5.6 4.6 0 2-1.2 3.4-3 4 2.3.3 3.8 2 3.8 4.4 0 3.7-3.5 5-6.6 5h-7.3zm4-14.6v4.6h2.7c1.2 0 2.5-1.3 2.5-2.8 0-1.5-1.4-1.8-2-1.8h-3.3zm0 7.1v4.1h3.4c2.1 0 2.6.2 2.6-2 0-1.8-1.9-2-3.1-2h-3z"/>
                                <path id="Fill-3" fill="#FFF" fill-rule="evenodd" stroke="none" d="M47.9 19.9h3.5v-6.3c0-4.1-1.2-6.4-5.6-6.4-2 0-4 .7-5.4 2l2 2.1a4 4 0 0 1 3.1-1.5c1.3 0 2.4.9 2.4 2.6-3.1 0-8.2-.3-8.2 4 0 2.5 2 3.8 4.3 3.8 1.5 0 3.3-.5 3.9-1.9v2.5zm0-5.4v.8c0 1.5-1.4 2.3-2.4 2.3-1.3 0-2.2-.4-2.2-1.3 0-1.7 2.5-1.8 3.7-1.8h.9z"/>
                                <path id="Fill-5" fill="#FFF" fill-rule="evenodd" stroke="none" d="M53.4 19.9h3.8v-6.2c0-1.6.3-3.1 2.3-3.1 1.9 0 2 1.8 2 3.2v6h3.7v-6c0-4-.7-6.6-4.5-6.6-1.9 0-3.1 1-2.7 2h-.5V7.5h-4v13.4"/>
                                <path id="Fill-7" fill="#FFF" fill-rule="evenodd" stroke="none" d="M67.3 19.9h4v-5.2c0-2.4 0-4.1 3-4.1.5 0 1 0 1.5.2V7.4l-1.2-.2c-1.7 0-2.7 1-2.8 2.3h-.4v-2h-4.1v12.6"/>
                                <mask id="mask-5" fill="#fff">
                                    <use id="use237" xlink:href="#path-4"/>
                                </mask>
                                <path id="Fill-9" fill="#FFF" fill-rule="evenodd" stroke="none" d="M77.8 19.9h3.8V7.5h-3.8v12.6zm-.3-16.2c0 1.2 1 2.2 2.2 2.2 1.2 0 2.2-1 2.2-2.2 0-1.3-1-2.3-2.2-2.3-1.2 0-2.2 1-2.2 2.3z" mask="url(#mask-5)"/>
                                <path id="Fill-11" fill="#FFF" fill-rule="evenodd" stroke="none" d="M93.2 8.9c-.3-1.3-2.9-1.7-4.5-1.7-2.5 0-5.1 1.3-5.1 4.2 0 4.7 6.3 3 6.3 5 0 1.3 0 .9-1.7.9-1 0-2-.5-2.6-1.2l-2.3 2.4c1.2 1.3 3 1.7 5.5 1.7 1.9 0 4.9-1 4.9-4 0-4.8-6.3-3-6.3-5 0-.8 1.6-1 1.3-1 1 0 1.7.3 2.2 1l2.3-2.3" mask="url(#mask-5)"/>
                                <path id="Fill-12" fill="#FFF" fill-rule="evenodd" stroke="none" d="M108 7.5h-4.7v6.2c0 1.6 0 3.1-1.5 3.1-2.6 0-1.8-1.7-1.8-3.2v-6h-4.6v6.8c0 3.3 1.3 5.8 4.5 5.8 1.8 0 3-1 3.5-2v2h4.6V7.5" mask="url(#mask-5)"/>
                                <polygon id="Fill-13" fill="#FFF" fill-rule="evenodd" stroke="none" points="109.3 19.9 113 19.9" mask="url(#mask-5)"/>
                                <path id="Fill-14" fill="#FFF" fill-rule="evenodd" stroke="none" d="M9.5 10.2l-1.3 2h-3 .6c-.9 0-1 0-1.1.6.2-.6.5-.6.7-1l2.9-4.2c0-.2.1-.4.1-.1h6.2c0-.3 0 0-.1 0l-1.3 2.1h-2.8s-.7.2-.9.6zm0 0zm.2 4.6c0 .4 0 .3-.2.5l-2.7 4.3-.5.3H.7c-.5 0-.2-.1-.1-.3l2.7-4.3.2-.5h6.2zm9.5 0v.5l-3 4.3c0 .2-.3.3-.4.3H9.5l1.1-.3 2.2-4.3.2-.5h6.2z" mask="url(#mask-5)"/>
                                <path id="Fill-15" fill="#FFF" fill-rule="evenodd" stroke="none" d="M.3 9.6H3l1.2 2c.2.2.3 1.2.5 1.2.1-.6.2-.6 1-.6h-.5 3l1.4 2 .1.6H3.5l-.1-.6-2.8-4.1-.3-.4m14.3-2.1H8.4l-.1-1-2.8-4.3c-.1-.2.5.6-.6.6l6.3-.7.5.1 2.8 4.3.1 1m1.1 2.1l.6.6 2.9 4v.6H13c.7-.2 0-.4-.2-.6l-2.5-4c.5-.1-.6-.1-.8 0 .2-.4.9-.6 1-.6h5.2" mask="url(#mask-5)"/>
                            </g>
                        </g>
                        <g id="g257" mask="url(#mask-3)">
                            <g id="g255" transform="translate(-19.8)">
                                <path id="path251" fill="#00386A" d="M96 82.9l-1 .3-12.4 19.5H50.8c-1.5 0-1.8-.3-3.3-1 1.2 1 4.2.8 6.5-2.1l28.9-43.1c1-1.8 1.5-3.6 1.6-5.4h62c0 2.7 0 3.7-.5 5.1l-13.5 20.6h-28.3c-4 0-6.6 2-8.9 5.7l.7.4zm-.7-.4c-.1.2.3.4-.3.7l1-.3s-.7-.4 0 0l-.7-.4zm2.3 46.6a32 32 0 0 1-2 4.6l-27.9 43.7c-1.2 2-3 3.4-5 2.8h-63c2 0 4.8-1.1 6-3l27.8-43.5c1-.1 1.4-3.1 2.2-4.6h62zm94.6 0c-.3 1.7-.8 3.3-1.7 4.7l-27.8 43.6c-1.2 1.8-3 3-5 2.8H95c1.7 0 4.8-1.3 5.8-3l27.7-43.5c.9-1.6 1.4-3 1.5-4.6h62.2z"/>
                                <path id="path253" fill="#005D97" d="M-.1 76.9h29.4l13 19.9c2.7 2 3 3.7 4.5 4.7a7 7 0 0 0 3.8 1.1h31.8l13 20.6c1.2 1.5 2.1 3.6 1.5 5.7H34.8a10 10 0 0 0-1.5-6l-28-43.4A9.6 9.6 0 0 0-.1 77m146.6-25.6H84.3a10 10 0 0 0-1.6-5.3L55 2.8c-1.2-1.9-4.2-2-5.8-2l63.2-.6c1.9 0 4.5 1 5.6 2.5l27 43.5a10 10 0 0 1 1.4 5.1m11.2 26c1.6 0 3.8.5 5 2.3l27.8 43.3c1.2 1.9 2.6 4 1.6 6h-62.2c.6-2.1-.3-4.2-1.4-5.7l-25.5-39.8c-2.1-3.6-5.7-3.6-7.7-.8 2.2-3.7 4.8-5.4 9.3-5.4h53.1"/>
                            </g>
                        </g>
                        <rect id="Rectangle-16" width="43.7" height="33.4" x="21.9" y="63.4" fill="#F1DAA3" mask="url(#mask-3)" rx="7.3"/>
                    </g>
                </g>
            </g>
        </g>
    </g>
    <defs>
        <![CDATA[
          @font-face {
              font-family: 'Credit Card';
              src: url('fonts/CreditCard.ttf') format('truetype');
          }
        ]]>
    </defs>
    <text id="text265" x="55" y="139" fill="#e6e6e6" font-family="Credit Card" font-size="16" font-stretch="normal" font-style="normal" font-variant="normal" font-weight="400" style="-inkscape-font-specification:'Credit Card, Normal';font-feature-settings:normal;font-variant-caps:normal;font-variant-ligatures:normal;font-variant-numeric:normal;text-align:start" text-anchor="start" writing-mode="lr">
        <tspan id="tspan275">6396 6400 1234 0001</tspan>
    </text>
</svg>
