<?xml version="1.0" encoding="UTF-8"?>
<svg width="343px" height="235px" viewBox="0 0 343 235" version="1.1" xmlns="http://www.w3.org/2000/svg" xmlns:xlink="http://www.w3.org/1999/xlink">
    <!-- Generator: sketchtool 49.3 (51167) - http://www.bohemiancoding.com/sketch -->
    <title>78BB2C51-628E-4350-A618-78ABF3481C8D</title>
    <desc>Created with sketchtool.</desc>
    <defs>
        <filter x="-17.9%" y="-18.7%" width="135.9%" height="157.5%" filterUnits="objectBoundingBox" id="filter-1">
            <feMorphology radius="0.457142845" operator="dilate" in="SourceAlpha" result="shadowSpreadOuter1"></feMorphology>
            <feOffset dx="0" dy="18" in="shadowSpreadOuter1" result="shadowOffsetOuter1"></feOffset>
            <feMorphology radius="1" operator="erode" in="SourceAlpha" result="shadowInner"></feMorphology>
            <feOffset dx="0" dy="18" in="shadowInner" result="shadowInner"></feOffset>
            <feComposite in="shadowOffsetOuter1" in2="shadowInner" operator="out" result="shadowOffsetOuter1"></feComposite>
            <feGaussianBlur stdDeviation="14" in="shadowOffsetOuter1" result="shadowBlurOuter1"></feGaussianBlur>
            <feColorMatrix values="0 0 0 0 0   0 0 0 0 0   0 0 0 0 0  0 0 0 0.2 0" type="matrix" in="shadowBlurOuter1" result="shadowMatrixOuter1"></feColorMatrix>
            <feMerge>
                <feMergeNode in="shadowMatrixOuter1"></feMergeNode>
                <feMergeNode in="SourceGraphic"></feMergeNode>
            </feMerge>
        </filter>
        <rect id="path-2" x="0" y="0" width="286.999992" height="178.999995" rx="7.31428552"></rect>
        <polygon id="path-4" points="0 20.1995249 113.01859 20.1995249 113.01859 0.681365419 0 0.681365419"></polygon>
    </defs>
    <g id="Completo" stroke="none" stroke-width="1" fill="none" fill-rule="evenodd">
        <g id="05.17:Beneficios" transform="translate(-9.000000, -185.000000)">
            <g id="Cartao" transform="translate(9.000000, 185.000000)">
                <g id="cartao-banrisul" filter="url(#filter-1)" transform="translate(28.000000, 10.000000)">
                    <g id="Logo">
                        <mask id="mask-3" fill="white">
                            <use xlink:href="#path-2"></use>
                        </mask>
                        <use id="Mask" fill="#0073C7" xlink:href="#path-2"></use>
                        <g mask="url(#mask-3)">
                            <g transform="translate(159.899996, 12.274285)">
                                <path d="M24.5010676,19.8939076 L24.5010676,1.9020369 L31.1156487,1.9020369 C34.2226585,1.9020369 37.6061621,2.56181074 37.6061621,6.47730778 C37.6061621,8.48359552 36.3778918,9.85707565 34.5487793,10.4395463 L34.5487793,10.491681 C36.8794798,10.7955006 38.4303261,12.5501035 38.4303261,14.8889747 C38.4303261,18.6498654 34.9245273,19.8939076 31.766118,19.8939076 L24.5010676,19.8939076 Z M28.4109727,5.25663629 L28.4109727,9.09303238 L31.2397164,9.09303238 C32.4431732,9.09303238 33.696257,8.58786495 33.696257,7.13528386 C33.696257,5.63596131 32.2925195,5.25663629 31.0642492,5.25663629 L28.4109727,5.25663629 Z M28.4109727,12.4476318 L28.4109727,16.541106 L31.9167716,16.541106 C33.1450419,16.541106 34.5221934,16.0071745 34.5221934,14.4323465 C34.5221934,12.7262828 32.6434539,12.4476318 31.3655565,12.4476318 L28.4109727,12.4476318 Z" id="Fill-1" stroke="none" fill="#FFFFFF" fill-rule="evenodd"></path>
                                <path d="M47.9023637,19.8939076 L51.3603079,19.8939076 L51.3603079,13.6179663 C51.3603079,9.50291912 50.1834371,7.2395533 45.7985299,7.2395533 C43.8205362,7.2395533 41.8159565,7.90112488 40.4370326,9.22067255 L42.4416123,11.3060612 C43.2427352,10.3910071 44.2707247,9.83010942 45.498995,9.83010942 C46.7999335,9.83010942 47.9023637,10.6948266 47.9023637,12.0431383 C44.7705403,12.0431383 39.6589509,12.1186437 39.6589509,16.3882973 C39.6589509,18.8781795 41.71493,20.1995249 43.994231,20.1995249 C45.5220361,20.1995249 47.0250278,19.6655935 47.8527366,18.3442481 L47.9023637,18.3442481 L47.9023637,19.8939076 Z M47.9023637,14.479088 L47.9023637,15.2934682 C47.9023637,16.8179593 46.5234398,17.607171 45.0470341,17.607171 C44.2193252,17.607171 43.2693211,17.1739136 43.2693211,16.2606571 C43.2693211,14.5833574 45.8251158,14.479088 46.9754007,14.479088 L47.9023637,14.479088 Z" id="Fill-3" stroke="none" fill="#FFFFFF" fill-rule="evenodd"></path>
                                <path d="M53.4402143,19.8939076 L57.1994658,19.8939076 L57.1994658,13.7456065 C57.1994658,12.1420145 57.5007731,10.5923549 59.4521808,10.5923549 C61.3823198,10.5923549 61.4071334,12.424261 61.4071334,13.8480781 L61.4071334,19.8939076 L65.1646124,19.8939076 L65.1646124,13.0840349 C65.1646124,9.77977245 64.4627437,7.2395533 60.6556376,7.2395533 C58.8265251,7.2395533 57.5982548,8.25348366 57.0966668,9.22067255 L57.0488121,9.22067255 L57.0488121,7.54517061 L53.4402143,7.54517061 L53.4402143,19.8939076" id="Fill-5" stroke="none" fill="#FFFFFF" fill-rule="evenodd"></path>
                                <path d="M67.2774855,19.8939076 L71.0367369,19.8939076 L71.0367369,14.7361661 C71.0367369,12.2714524 71.3858989,10.5923549 74.2430009,10.5923549 C74.794216,10.5923549 75.3206175,10.6948266 75.8470191,10.8476353 L75.8470191,7.36539572 C75.4960847,7.26472178 75.0193103,7.2395533 74.5939353,7.2395533 C72.94029,7.2395533 71.8892593,8.02516955 71.0845916,9.52449211 L71.0367369,9.52449211 L71.0367369,7.54517061 L67.2774855,7.54517061 L67.2774855,19.8939076" id="Fill-7" stroke="none" fill="#FFFFFF" fill-rule="evenodd"></path>
                                <mask id="mask-5" fill="white">
                                    <use xlink:href="#path-4"></use>
                                </mask>
                                <g id="Clip-10" stroke="none" fill="none"></g>
                                <path d="M77.7939959,19.8939076 L81.5532473,19.8939076 L81.5532473,7.54517061 L77.7939959,7.54517061 L77.7939959,19.8939076 Z M77.4926886,3.6566398 C77.4926886,4.87551353 78.471051,5.86787091 79.6745078,5.86787091 C80.8779645,5.86787091 81.8545546,4.87551353 81.8545546,3.6566398 C81.8545546,2.43596832 80.8779645,1.44361094 79.6745078,1.44361094 C78.471051,1.44361094 77.4926886,2.43596832 77.4926886,3.6566398 Z" id="Fill-9" stroke="none" fill="#FFFFFF" fill-rule="evenodd" mask="url(#mask-5)"></path>
                                <path d="M93.2203971,8.86507783 C92.0931533,7.64440634 90.313668,7.23991285 88.7096498,7.23991285 C86.1538551,7.23991285 83.5980603,8.50912355 83.5980603,11.4070947 C83.5980603,16.1064103 89.9361477,14.4327061 89.9361477,16.4120276 C89.9361477,17.0718014 89.0853977,17.3001155 88.2346477,17.3001155 C87.1056316,17.3001155 86.2779228,16.8183188 85.5778264,15.9536016 L83.2985254,18.520787 C84.5019822,19.7648292 86.3789493,20.1998845 88.0839941,20.1998845 C90.6894159,20.1998845 93.6971715,19.2848303 93.6971715,16.1333765 C93.6971715,11.4322632 87.3555394,12.9819227 87.3555394,11.1500166 C87.3555394,10.4147374 88.1088076,10.1360863 88.7344633,10.1360863 C89.6366128,10.1360863 90.3632951,10.4902428 90.9145101,11.1769829 L93.2203971,8.86507783" id="Fill-11" stroke="none" fill="#FFFFFF" fill-rule="evenodd" mask="url(#mask-5)"></path>
                                <path d="M107.098433,7.54481106 L103.339182,7.54481106 L103.339182,13.6949099 C103.339182,15.2949064 103.037875,16.844566 101.084694,16.844566 C99.1563278,16.844566 99.1315142,15.0144576 99.1315142,13.5924383 L99.1315142,7.54481106 L95.3722628,7.54481106 L95.3722628,14.3546838 C95.3722628,17.6589462 96.0741315,20.1991654 99.8830101,20.1991654 C101.71035,20.1991654 102.93862,19.1834372 103.440208,18.2180461 L103.489835,18.2180461 L103.489835,19.893548 L107.098433,19.893548 L107.098433,7.54481106" id="Fill-12" stroke="none" fill="#FFFFFF" fill-rule="evenodd" mask="url(#mask-5)"></path>
                                <polygon id="Fill-13" stroke="none" fill="#FFFFFF" fill-rule="evenodd" mask="url(#mask-5)" points="109.261111 19.8939076 113.020362 19.8939076 113.020362 0.681365419 109.261111 0.681365419"></polygon>
                                <path d="M9.50075037,10.2099738 L9.48302642,10.2405355 L8.24766655,12.191093 L5.16901507,12.191093 L5.07685049,12.191093 C4.92619685,12.191093 4.80744633,12.155138 4.69933019,12.0796326 C4.8623906,12.191093 5.16724268,12.1659245 5.39233694,11.876487 L8.27956968,7.58346266 C8.38591342,7.40548552 8.43376811,7.22571063 8.43554051,7.04953124 L14.6336086,7.04953124 C14.6318362,7.23469938 14.5857539,7.41267651 14.4953617,7.55649642 L13.1873336,9.60593014 L10.4099894,9.60593014 C10.0041108,9.60593014 9.74888578,9.79828926 9.52201912,10.1758165 L9.50075037,10.2099738 Z M9.52201912,10.1758165 C9.50783996,10.1955918 9.49366079,10.2171648 9.48302642,10.2405355 L9.50075037,10.2099738 C9.50075037,10.2099738 9.52201912,10.1758165 9.50075037,10.2099738 L9.52201912,10.1758165 Z M9.69394151,14.8211996 C9.68330714,14.982997 9.63190766,15.1429967 9.54683266,15.2742323 L6.76417128,19.6337733 C6.64364837,19.8099527 6.42564368,19.8944469 6.26790046,19.8944469 L0.000708958313,19.8944469 C0.163769371,19.8944469 0.452669884,19.8027617 0.578509985,19.6157958 L3.3469922,15.2796256 C3.44270158,15.1178282 3.49055626,14.9668173 3.50296303,14.8211996 L9.69394151,14.8211996 Z M19.176259,14.8211996 C19.1638522,14.990188 19.1106803,15.1519854 19.0220605,15.2832211 L16.2500335,19.6301778 C16.1348278,19.8045595 15.902644,19.8944469 15.7502179,19.8944469 L9.48302642,19.8944469 C9.65317641,19.8944469 9.96689047,19.786582 10.0625998,19.6122003 L12.8328545,15.2742323 C12.9214742,15.1214237 12.9693289,14.9704128 12.9817357,14.8211996 L19.176259,14.8211996 Z" id="Fill-14" stroke="none" fill="#FFFFFF" fill-rule="evenodd" mask="url(#mask-5)"></path>
                                <path d="M0.0338527595,9.60772788 L2.95830581,9.60593014 L4.24860994,11.5331169 C4.42230473,11.797386 4.54991722,11.9753631 4.69879847,12.0796326 C4.80691461,12.155138 4.92566513,12.191093 5.07631877,12.191093 L5.16848335,12.191093 L8.24890723,12.191093 L9.55161813,14.2279425 C9.66682386,14.4059196 9.71113375,14.6162562 9.69518219,14.8211996 L3.50420371,14.8211996 C3.52192767,14.596481 3.45457663,14.3969309 3.35355007,14.2261447 L0.570888683,9.87199697 C0.478724102,9.72458156 0.204002755,9.62031213 0.0338527595,9.60772788 M14.6330769,7.04953124 L8.43678118,7.04953124 C8.43855358,6.86076761 8.38183691,6.67380173 8.28081035,6.50661108 L5.51764532,2.1812273 C5.39712241,1.99605917 5.10290471,1.90257623 4.9398443,1.90257623 L11.2052634,1.90257623 C11.3488275,1.90257623 11.5668321,1.96729519 11.7121686,2.1776318 L14.4912852,6.52998182 C14.5852222,6.68099272 14.6330769,6.86975635 14.6330769,7.04953124 M15.7496862,9.60593014 C15.9109742,9.60593014 16.1272065,9.69581758 16.2512742,9.87559247 L19.0197564,14.2135605 C19.1438241,14.3987286 19.1934512,14.6144585 19.1774996,14.8211996 L12.981204,14.8211996 C13.0007003,14.6000765 12.9439837,14.3933354 12.8323227,14.224347 L10.2960244,10.2495242 C10.0833369,9.88997446 9.72176813,9.88817671 9.5232598,10.1758165 C9.74835406,9.79649152 10.0035791,9.60593014 10.4094577,9.60593014 L13.1868019,9.60593014 L15.7496862,9.60593014" id="Fill-15" stroke="none" fill="#FFFFFF" fill-rule="evenodd" mask="url(#mask-5)"></path>
                            </g>
                        </g>
                        <g mask="url(#mask-3)">
                            <g transform="translate(-19.816666, 0.000000)">
                                <path d="M95.1298,82.8532874 L94.952319,83.1599298 L82.5818954,102.73093 L51.7534509,102.73093 L50.8305498,102.73093 C49.3219616,102.73093 48.1328391,102.370174 47.0502052,101.612587 C48.6830301,102.73093 51.7357028,102.478401 53.9897111,99.5743171 L82.9013611,56.5000789 C83.966247,54.7143378 84.4454456,52.910559 84.4631937,51.1428558 L146.528289,51.1428558 C146.510541,53.000748 146.04909,54.786489 145.143937,56.2295121 L132.045842,76.7925906 L104.234574,76.7925906 C100.17026,76.7925906 97.6145336,78.7226339 95.3427772,82.5105694 L95.1298,82.8532874 Z M95.3427772,82.5105694 C95.2007924,82.7089851 95.0588076,82.9254386 94.952319,83.1599298 L95.1298,82.8532874 C95.1298,82.8532874 95.3427772,82.5105694 95.1298,82.8532874 L95.3427772,82.5105694 Z M97.0643426,129.120214 C96.957854,130.743615 96.4431592,132.348978 95.5912505,133.665737 L67.7267382,177.407373 C66.5198676,179.175076 64.3368517,180.022852 62.757271,180.022852 L0,180.022852 C1.63282493,180.022852 4.52576474,179.102925 5.78587963,177.226995 L33.5084072,133.71985 C34.4668044,132.096449 34.946003,130.581275 35.0702397,129.120214 L97.0643426,129.120214 Z M192.016662,129.120214 C191.892425,130.815766 191.359982,132.439167 190.472577,133.755926 L162.714553,177.371298 C161.560927,179.120963 159.235926,180.022852 157.70959,180.022852 L94.952319,180.022852 C96.6561363,180.022852 99.7975495,178.940585 100.755947,177.19092 L128.496222,133.665737 C129.383627,132.132525 129.862826,130.617351 129.987063,129.120214 L192.016662,129.120214 Z" id="Fill-14" fill="#00386A"></path>
                                <path d="M0,76.8688652 L29.3287286,76.8509303 L42.2689192,96.0771141 C44.0108679,98.7135404 45.290667,100.489093 46.7837659,101.529315 C47.8680401,102.28258 49.0589642,102.641278 50.5698381,102.641278 L51.4941374,102.641278 L82.3870649,102.641278 L95.4516804,122.961489 C96.6070545,124.737041 97.0514292,126.835421 96.8914543,128.879997 L34.8034246,128.879997 C34.9811745,126.638137 34.305725,124.647367 33.2925507,122.943554 L5.38582107,79.5052915 C4.46152174,78.0346319 1.70639875,76.9944093 0,76.8688652 M146.412568,51.3475411 L84.2712135,51.3475411 C84.2889885,49.4643794 83.7201889,47.5991526 82.7070147,45.9312095 L54.9958099,2.7799053 C53.7871108,0.93261339 50.8364629,0 49.2011641,0 L112.035743,0 C113.475517,0 115.661841,0.645655424 117.11939,2.74403555 L144.990569,46.1643628 C145.932644,47.6708921 146.412568,49.5540538 146.412568,51.3475411 M157.61081,76.8509303 C159.228334,76.8509303 161.396882,77.747674 162.641131,79.5411613 L190.405661,122.81801 C191.64991,124.665301 192.14761,126.817486 191.987635,128.879997 L129.84628,128.879997 C130.041805,126.674007 129.473006,124.611497 128.353181,122.925619 L102.917175,83.2716148 C100.784176,79.6846402 97.1580791,79.6667054 95.1672806,82.536285 C97.4247039,78.7520269 99.984302,76.8509303 104.054774,76.8509303 L131.908179,76.8509303 L157.61081,76.8509303" id="Fill-15" fill="#005D97"></path>
                            </g>
                        </g>
                        <rect id="Rectangle-16" fill="#F1DAA3" mask="url(#mask-3)" x="21.8666661" y="63.4171412" width="43.7333322" height="33.4133324" rx="7.31428552"></rect>
                    </g>
                    <path d="M17.7800125,123.309888 C17.7800125,120.516106 18.3718618,118.436895 19.5555781,117.072191 C20.7392944,115.707486 22.5116168,115.025144 24.8725986,115.025144 C25.6789449,115.025144 26.3111108,115.073423 26.7691155,115.169983 L26.7691155,117.554984 C26.194997,117.426239 25.6273377,117.361867 25.0661208,117.361867 C24.0404483,117.361867 23.2034735,117.516359 22.5551711,117.825349 C21.9068687,118.134339 21.4214556,118.591379 21.0989171,119.196484 C20.7763786,119.801588 20.5860837,120.660953 20.5280268,121.774603 L20.6538162,121.774603 C21.2924424,120.680265 22.3148741,120.133104 23.7211419,120.133104 C24.9854929,120.133104 25.9756712,120.528991 26.6917066,121.320777 C27.4077421,122.112563 27.7657545,123.206885 27.7657545,124.603775 C27.7657545,126.1101 27.34001,127.302589 26.4885084,128.181278 C25.6370068,129.059967 24.4565336,129.499305 22.9470534,129.499305 C21.9020287,129.499305 20.9908711,129.257911 20.2135533,128.775114 C19.4362356,128.292318 18.836323,127.587446 18.4137975,126.660477 C17.9912721,125.733508 17.7800125,124.616656 17.7800125,123.309888 Z M22.8889968,127.114303 C23.527623,127.114303 24.0178742,126.900267 24.359765,126.472187 C24.7016558,126.044108 24.8725986,125.434185 24.8725986,124.642399 C24.8725986,123.953609 24.7129445,123.411276 24.3936314,123.015383 C24.0743182,122.61949 23.5921304,122.421547 22.9470534,122.421547 C22.3406811,122.421547 21.8230145,122.617881 21.3940383,123.010555 C20.9650621,123.40323 20.7505772,123.86027 20.7505772,124.38169 C20.7505772,125.147727 20.9521608,125.794664 21.3553339,126.322521 C21.758507,126.850379 22.2697229,127.114303 22.8889968,127.114303 Z M40.1533825,118.346766 C40.1533825,119.228674 39.8856796,119.978607 39.3502657,120.596586 C38.8148518,121.214565 38.0633484,121.63942 37.0957329,121.871162 L37.0957329,121.929097 C38.2375192,122.070717 39.1019094,122.416716 39.6889294,122.967104 C40.2759495,123.517492 40.5694551,124.259378 40.5694551,125.192784 C40.5694551,126.551051 40.0759786,127.608359 39.0890108,128.36474 C38.102043,129.12112 36.6925709,129.499305 34.8605523,129.499305 C33.325269,129.499305 31.964177,129.245036 30.7772353,128.736491 L30.7772353,126.196995 C31.3255508,126.473798 31.9286887,126.6991 32.5866673,126.872906 C33.2446458,127.046713 33.8961638,127.133615 34.5412408,127.133615 C35.5282086,127.133615 36.2571346,126.966248 36.7280408,126.631509 C37.198947,126.296771 37.4343966,125.759266 37.4343966,125.018978 C37.4343966,124.355938 37.1634683,123.886023 36.6216037,123.60922 C36.079739,123.332417 35.2153488,123.194017 34.0284071,123.194017 L32.9543593,123.194017 L32.9543593,120.905574 L34.0477593,120.905574 C35.1443902,120.905574 35.9458864,120.762347 36.4522718,120.475887 C36.9586572,120.189428 37.2118462,119.698593 37.2118462,119.003366 C37.2118462,117.934777 36.5409762,117.40049 35.199216,117.40049 C34.7347606,117.40049 34.2622488,117.477737 33.7816664,117.632231 C33.301084,117.786726 32.7672908,118.05387 32.1802708,118.433669 L30.7965875,116.376967 C32.0867415,115.449998 33.6252271,114.986521 35.4120904,114.986521 C36.8764151,114.986521 38.0326983,115.282632 38.8809745,115.874862 C39.7292508,116.467092 40.1533825,117.291052 40.1533825,118.346766 Z M53.5860301,121.214562 C53.5860301,123.995469 52.9990189,126.071462 51.8249787,127.442603 C50.6509386,128.813745 48.8737782,129.499305 46.493444,129.499305 C45.654844,129.499305 45.0194527,129.454245 44.5872511,129.364123 L44.5872511,126.969465 C45.1291157,127.104648 45.696775,127.172239 46.2902458,127.172239 C47.2901152,127.172239 48.112576,127.025793 48.757653,126.732896 C49.40273,126.44 49.8962065,125.979741 50.2380973,125.352106 C50.5799881,124.72447 50.7767336,123.860278 50.8283398,122.759503 L50.7122265,122.759503 C50.3380818,123.364607 49.9058867,123.789462 49.4156282,124.034078 C48.9253697,124.278695 48.3125558,124.401002 47.577168,124.401002 C46.3450709,124.401002 45.3742446,124.006724 44.6646599,123.218157 C43.9550752,122.429589 43.6002882,121.333658 43.6002882,119.93033 C43.6002882,118.417569 44.0308706,117.221861 44.8920484,116.343172 C45.7532262,115.464482 46.9256361,115.025144 48.4093131,115.025144 C49.4543379,115.025144 50.3687208,115.269758 51.1524893,115.758991 C51.9362579,116.248225 52.5377832,116.957925 52.9570832,117.888112 C53.3763832,118.8183 53.5860301,119.927105 53.5860301,121.214562 Z M48.4673698,117.419802 C47.8480959,117.419802 47.3642954,117.632229 47.0159538,118.05709 C46.6676122,118.481951 46.493444,119.093484 46.493444,119.891707 C46.493444,120.574059 46.6514855,121.114783 46.9675733,121.513894 C47.283661,121.913006 47.7642361,122.112559 48.4093131,122.112559 C49.0156855,122.112559 49.5349647,121.914615 49.9671663,121.518722 C50.3993679,121.122829 50.6154654,120.667398 50.6154654,120.152416 C50.6154654,119.386379 50.4138819,118.739441 50.0107088,118.211584 C49.6075356,117.683727 49.0930945,117.419802 48.4673698,117.419802 Z M56.597511,123.309888 C56.597511,120.516106 57.1893603,118.436895 58.3730765,117.072191 C59.5567928,115.707486 61.3291153,115.025144 63.6900971,115.025144 C64.4964433,115.025144 65.1286093,115.073423 65.5866139,115.169983 L65.5866139,117.554984 C65.0124954,117.426239 64.4448362,117.361867 63.8836192,117.361867 C62.8579468,117.361867 62.0209719,117.516359 61.3726696,117.825349 C60.7243672,118.134339 60.238954,118.591379 59.9164155,119.196484 C59.593877,119.801588 59.4035822,120.660953 59.3455252,121.774603 L59.4713146,121.774603 C60.1099408,120.680265 61.1323725,120.133104 62.5386404,120.133104 C63.8029913,120.133104 64.7931696,120.528991 65.5092051,121.320777 C66.2252405,122.112563 66.5832529,123.206885 66.5832529,124.603775 C66.5832529,126.1101 66.1575085,127.302589 65.3060068,128.181278 C64.4545052,129.059967 63.274032,129.499305 61.7645519,129.499305 C60.7195271,129.499305 59.8083696,129.257911 59.0310518,128.775114 C58.253734,128.292318 57.6538214,127.587446 57.231296,126.660477 C56.8087705,125.733508 56.597511,124.616656 56.597511,123.309888 Z M61.7064952,127.114303 C62.3451214,127.114303 62.8353726,126.900267 63.1772634,126.472187 C63.5191542,126.044108 63.6900971,125.434185 63.6900971,124.642399 C63.6900971,123.953609 63.5304429,123.411276 63.2111298,123.015383 C62.8918167,122.61949 62.4096289,122.421547 61.7645519,122.421547 C61.1581795,122.421547 60.640513,122.617881 60.2115368,123.010555 C59.7825606,123.40323 59.5680757,123.86027 59.5680757,124.38169 C59.5680757,125.147727 59.7696592,125.794664 60.1728323,126.322521 C60.5760055,126.850379 61.0872213,127.114303 61.7064952,127.114303 Z M83.0876497,123.309888 C83.0876497,120.516106 83.679499,118.436895 84.8632153,117.072191 C86.0469316,115.707486 87.819254,115.025144 90.1802358,115.025144 C90.986582,115.025144 91.618748,115.073423 92.0767527,115.169983 L92.0767527,117.554984 C91.5026342,117.426239 90.9349749,117.361867 90.3737579,117.361867 C89.3480855,117.361867 88.5111107,117.516359 87.8628083,117.825349 C87.2145059,118.134339 86.7290928,118.591379 86.4065543,119.196484 C86.0840158,119.801588 85.8937209,120.660953 85.835664,121.774603 L85.9614534,121.774603 C86.6000796,120.680265 87.6225113,120.133104 89.0287791,120.133104 C90.29313,120.133104 91.2833084,120.528991 91.9993438,121.320777 C92.7153793,122.112563 93.0733916,123.206885 93.0733916,124.603775 C93.0733916,126.1101 92.6476472,127.302589 91.7961456,128.181278 C90.944644,129.059967 89.7641708,129.499305 88.2546906,129.499305 C87.2096659,129.499305 86.2985083,129.257911 85.5211905,128.775114 C84.7438727,128.292318 84.1439601,127.587446 83.7214347,126.660477 C83.2989093,125.733508 83.0876497,124.616656 83.0876497,123.309888 Z M88.196634,127.114303 C88.8352602,127.114303 89.3255113,126.900267 89.6674022,126.472187 C90.009293,126.044108 90.1802358,125.434185 90.1802358,124.642399 C90.1802358,123.953609 90.0205816,123.411276 89.7012685,123.015383 C89.3819554,122.61949 88.8997676,122.421547 88.2546906,122.421547 C87.6483182,122.421547 87.1306517,122.617881 86.7016755,123.010555 C86.2726993,123.40323 86.0582144,123.86027 86.0582144,124.38169 C86.0582144,125.147727 86.259798,125.794664 86.6629711,126.322521 C87.0661442,126.850379 87.5773601,127.114303 88.196634,127.114303 Z M106.331869,126.380457 L104.628875,126.380457 L104.628875,129.306188 L101.70669,129.306188 L101.70669,126.380457 L95.6687999,126.380457 L95.6687999,124.304443 L101.871184,115.189294 L104.628875,115.189294 L104.628875,124.063046 L106.331869,124.063046 L106.331869,126.380457 Z M101.70669,124.063046 L101.70669,121.668388 C101.70669,121.269277 101.722817,120.68993 101.755071,119.93033 C101.787325,119.170731 101.813127,118.729783 101.83248,118.607475 L101.755071,118.607475 C101.516392,119.135332 101.229337,119.650307 100.893897,120.152416 L98.3007009,124.063046 L101.70669,124.063046 Z M118.874315,122.247741 C118.874315,124.713221 118.469535,126.538163 117.659964,127.722624 C116.850392,128.907084 115.6038,129.499305 113.920149,129.499305 C112.288104,129.499305 111.057638,128.887772 110.228714,127.664688 C109.39979,126.441604 108.985334,124.635973 108.985334,122.247741 C108.985334,119.756512 109.388501,117.920304 110.194848,116.739063 C111.001194,115.557821 112.242948,114.967209 113.920149,114.967209 C115.552193,114.967209 116.785885,115.585179 117.621259,116.821138 C118.456634,118.057096 118.874315,119.865946 118.874315,122.247741 Z M111.955899,122.247741 C111.955899,123.97937 112.105877,125.220138 112.405838,125.970082 C112.705799,126.720025 113.210564,127.094992 113.920149,127.094992 C114.616832,127.094992 115.119984,126.715198 115.429621,125.955598 C115.739258,125.195999 115.894074,123.960059 115.894074,122.247741 C115.894074,120.516112 115.737645,119.272125 115.424783,118.515744 C115.111921,117.759363 114.610381,117.381179 113.920149,117.381179 C113.217015,117.381179 112.713862,117.759363 112.410676,118.515744 C112.10749,119.272125 111.955899,120.516112 111.955899,122.247741 Z M131.813481,122.247741 C131.813481,124.713221 131.408701,126.538163 130.59913,127.722624 C129.789558,128.907084 128.542966,129.499305 126.859315,129.499305 C125.22727,129.499305 123.996804,128.887772 123.16788,127.664688 C122.338956,126.441604 121.9245,124.635973 121.9245,122.247741 C121.9245,119.756512 122.327667,117.920304 123.134014,116.739063 C123.94036,115.557821 125.182115,114.967209 126.859315,114.967209 C128.491359,114.967209 129.725051,115.585179 130.560425,116.821138 C131.3958,118.057096 131.813481,119.865946 131.813481,122.247741 Z M124.895065,122.247741 C124.895065,123.97937 125.045043,125.220138 125.345004,125.970082 C125.644965,126.720025 126.14973,127.094992 126.859315,127.094992 C127.555998,127.094992 128.05915,126.715198 128.368787,125.955598 C128.678424,125.195999 128.83324,123.960059 128.83324,122.247741 C128.83324,120.516112 128.676812,119.272125 128.363949,118.515744 C128.051087,117.759363 127.549547,117.381179 126.859315,117.381179 C126.156181,117.381179 125.653028,117.759363 125.349842,118.515744 C125.046656,119.272125 124.895065,120.516112 124.895065,122.247741 Z M158.30362,122.247741 C158.30362,124.713221 157.89884,126.538163 157.089269,127.722624 C156.279697,128.907084 155.033104,129.499305 153.349453,129.499305 C151.717409,129.499305 150.486943,128.887772 149.658019,127.664688 C148.829095,126.441604 148.414639,124.635973 148.414639,122.247741 C148.414639,119.756512 148.817806,117.920304 149.624152,116.739063 C150.430499,115.557821 151.672253,114.967209 153.349453,114.967209 C154.981498,114.967209 156.215189,115.585179 157.050564,116.821138 C157.885939,118.057096 158.30362,119.865946 158.30362,122.247741 Z M151.385204,122.247741 C151.385204,123.97937 151.535182,125.220138 151.835143,125.970082 C152.135104,126.720025 152.639869,127.094992 153.349453,127.094992 C154.046137,127.094992 154.549289,126.715198 154.858926,125.955598 C155.168563,125.195999 155.323379,123.960059 155.323379,122.247741 C155.323379,120.516112 155.16695,119.272125 154.854088,118.515744 C154.541226,117.759363 154.039686,117.381179 153.349453,117.381179 C152.64632,117.381179 152.143167,117.759363 151.839981,118.515744 C151.536795,119.272125 151.385204,120.516112 151.385204,122.247741 Z M171.242786,122.247741 C171.242786,124.713221 170.838006,126.538163 170.028435,127.722624 C169.218863,128.907084 167.972271,129.499305 166.28862,129.499305 C164.656575,129.499305 163.426109,128.887772 162.597185,127.664688 C161.768261,126.441604 161.353805,124.635973 161.353805,122.247741 C161.353805,119.756512 161.756972,117.920304 162.563319,116.739063 C163.369665,115.557821 164.611419,114.967209 166.28862,114.967209 C167.920664,114.967209 169.154356,115.585179 169.98973,116.821138 C170.825105,118.057096 171.242786,119.865946 171.242786,122.247741 Z M164.32437,122.247741 C164.32437,123.97937 164.474348,125.220138 164.774309,125.970082 C165.07427,126.720025 165.579035,127.094992 166.28862,127.094992 C166.985303,127.094992 167.488455,126.715198 167.798092,125.955598 C168.107729,125.195999 168.262545,123.960059 168.262545,122.247741 C168.262545,120.516112 168.106116,119.272125 167.793254,118.515744 C167.480392,117.759363 166.978852,117.381179 166.28862,117.381179 C165.585486,117.381179 165.082333,117.759363 164.779147,118.515744 C164.475961,119.272125 164.32437,120.516112 164.32437,122.247741 Z M184.181952,122.247741 C184.181952,124.713221 183.777173,126.538163 182.967601,127.722624 C182.158029,128.907084 180.911437,129.499305 179.227786,129.499305 C177.595741,129.499305 176.365275,128.887772 175.536351,127.664688 C174.707427,126.441604 174.292971,124.635973 174.292971,122.247741 C174.292971,119.756512 174.696138,117.920304 175.502485,116.739063 C176.308831,115.557821 177.550586,114.967209 179.227786,114.967209 C180.859831,114.967209 182.093522,115.585179 182.928896,116.821138 C183.764271,118.057096 184.181952,119.865946 184.181952,122.247741 Z M177.263536,122.247741 C177.263536,123.97937 177.413514,125.220138 177.713475,125.970082 C178.013436,126.720025 178.518201,127.094992 179.227786,127.094992 C179.924469,127.094992 180.427621,126.715198 180.737258,125.955598 C181.046895,125.195999 181.201711,123.960059 181.201711,122.247741 C181.201711,120.516112 181.045283,119.272125 180.73242,118.515744 C180.419558,117.759363 179.918018,117.381179 179.227786,117.381179 C178.524652,117.381179 178.021499,117.759363 177.718313,118.515744 C177.415127,119.272125 177.263536,120.516112 177.263536,122.247741 Z M197.121118,122.247741 C197.121118,124.713221 196.716339,126.538163 195.906767,127.722624 C195.097195,128.907084 193.850603,129.499305 192.166952,129.499305 C190.534907,129.499305 189.304441,128.887772 188.475517,127.664688 C187.646593,126.441604 187.232138,124.635973 187.232138,122.247741 C187.232138,119.756512 187.635305,117.920304 188.441651,116.739063 C189.247997,115.557821 190.489752,114.967209 192.166952,114.967209 C193.798997,114.967209 195.032688,115.585179 195.868063,116.821138 C196.703437,118.057096 197.121118,119.865946 197.121118,122.247741 Z M190.202702,122.247741 C190.202702,123.97937 190.35268,125.220138 190.652641,125.970082 C190.952602,126.720025 191.457367,127.094992 192.166952,127.094992 C192.863635,127.094992 193.366788,126.715198 193.676424,125.955598 C193.986061,125.195999 194.140878,123.960059 194.140878,122.247741 C194.140878,120.516112 193.984449,119.272125 193.671586,118.515744 C193.358724,117.759363 192.857184,117.381179 192.166952,117.381179 C191.463818,117.381179 190.960665,117.759363 190.657479,118.515744 C190.354293,119.272125 190.202702,120.516112 190.202702,122.247741 Z M223.611257,122.247741 C223.611257,124.713221 223.206477,126.538163 222.396906,127.722624 C221.587334,128.907084 220.340742,129.499305 218.657091,129.499305 C217.025046,129.499305 215.79458,128.887772 214.965656,127.664688 C214.136732,126.441604 213.722276,124.635973 213.722276,122.247741 C213.722276,119.756512 214.125443,117.920304 214.93179,116.739063 C215.738136,115.557821 216.97989,114.967209 218.657091,114.967209 C220.289135,114.967209 221.522827,115.585179 222.358201,116.821138 C223.193576,118.057096 223.611257,119.865946 223.611257,122.247741 Z M216.692841,122.247741 C216.692841,123.97937 216.842819,125.220138 217.14278,125.970082 C217.442741,126.720025 217.947506,127.094992 218.657091,127.094992 C219.353774,127.094992 219.856926,126.715198 220.166563,125.955598 C220.4762,125.195999 220.631016,123.960059 220.631016,122.247741 C220.631016,120.516112 220.474588,119.272125 220.161725,118.515744 C219.848863,117.759363 219.347323,117.381179 218.657091,117.381179 C217.953957,117.381179 217.450804,117.759363 217.147618,118.515744 C216.844432,119.272125 216.692841,120.516112 216.692841,122.247741 Z M236.550423,122.247741 C236.550423,124.713221 236.145644,126.538163 235.336072,127.722624 C234.5265,128.907084 233.279908,129.499305 231.596257,129.499305 C229.964212,129.499305 228.733746,128.887772 227.904822,127.664688 C227.075898,126.441604 226.661442,124.635973 226.661442,122.247741 C226.661442,119.756512 227.06461,117.920304 227.870956,116.739063 C228.677302,115.557821 229.919057,114.967209 231.596257,114.967209 C233.228302,114.967209 234.461993,115.585179 235.297367,116.821138 C236.132742,118.057096 236.550423,119.865946 236.550423,122.247741 Z M229.632007,122.247741 C229.632007,123.97937 229.781985,125.220138 230.081946,125.970082 C230.381907,126.720025 230.886672,127.094992 231.596257,127.094992 C232.29294,127.094992 232.796092,126.715198 233.105729,125.955598 C233.415366,125.195999 233.570182,123.960059 233.570182,122.247741 C233.570182,120.516112 233.413754,119.272125 233.100891,118.515744 C232.788029,117.759363 232.286489,117.381179 231.596257,117.381179 C230.893123,117.381179 230.38997,117.759363 230.086784,118.515744 C229.783598,119.272125 229.632007,120.516112 229.632007,122.247741 Z M249.489589,122.247741 C249.489589,124.713221 249.08481,126.538163 248.275238,127.722624 C247.465666,128.907084 246.219074,129.499305 244.535423,129.499305 C242.903378,129.499305 241.672912,128.887772 240.843988,127.664688 C240.015064,126.441604 239.600609,124.635973 239.600609,122.247741 C239.600609,119.756512 240.003776,117.920304 240.810122,116.739063 C241.616468,115.557821 242.858223,114.967209 244.535423,114.967209 C246.167468,114.967209 247.401159,115.585179 248.236534,116.821138 C249.071908,118.057096 249.489589,119.865946 249.489589,122.247741 Z M242.571173,122.247741 C242.571173,123.97937 242.721151,125.220138 243.021112,125.970082 C243.321073,126.720025 243.825838,127.094992 244.535423,127.094992 C245.232106,127.094992 245.735259,126.715198 246.044896,125.955598 C246.354532,125.195999 246.509349,123.960059 246.509349,122.247741 C246.509349,120.516112 246.35292,119.272125 246.040057,118.515744 C245.727195,117.759363 245.225655,117.381179 244.535423,117.381179 C243.832289,117.381179 243.329136,117.759363 243.02595,118.515744 C242.722764,119.272125 242.571173,120.516112 242.571173,122.247741 Z M262.428756,122.247741 C262.428756,124.713221 262.023976,126.538163 261.214404,127.722624 C260.404833,128.907084 259.15824,129.499305 257.474589,129.499305 C255.842544,129.499305 254.612078,128.887772 253.783154,127.664688 C252.95423,126.441604 252.539775,124.635973 252.539775,122.247741 C252.539775,119.756512 252.942942,117.920304 253.749288,116.739063 C254.555634,115.557821 255.797389,114.967209 257.474589,114.967209 C259.106634,114.967209 260.340325,115.585179 261.1757,116.821138 C262.011074,118.057096 262.428756,119.865946 262.428756,122.247741 Z M255.510339,122.247741 C255.510339,123.97937 255.660318,125.220138 255.960278,125.970082 C256.260239,126.720025 256.765004,127.094992 257.474589,127.094992 C258.171272,127.094992 258.674425,126.715198 258.984062,125.955598 C259.293699,125.195999 259.448515,123.960059 259.448515,122.247741 C259.448515,120.516112 259.292086,119.272125 258.979224,118.515744 C258.666361,117.759363 258.164821,117.381179 257.474589,117.381179 C256.771455,117.381179 256.268303,117.759363 255.965116,118.515744 C255.66193,119.272125 255.510339,120.516112 255.510339,122.247741 Z" id="6396-6400-0000-0000" fill="#FFFFFF"></path>
                </g>
            </g>
        </g>
    </g>
</svg>